<svg xmlns="http://www.w3.org/2000/svg" viewBox="0 0 1440 320">
  <path fill="#FFF" fill-opacity="1" d="M0,192L16,165.3C32,139,64,85,96,80C128,75,160,117,192,154.7C224,192,256,224,288,240C320,256,352,256,384,240C416,224,448,192,480,160C512,128,544,96,576,106.7C608,117,640,171,672,176C704,181,736,139,768,112C800,85,832,75,864,80C896,85,928,107,960,106.7C992,107,1024,85,1056,85.3C1088,85,1120,107,1152,144C1184,181,1216,235,1248,224C1280,213,1312,139,1344,138.7C1376,139,1408,213,1424,250.7L1440,288L1440,320L1424,320C1408,320,1376,320,1344,320C1312,320,1280,320,1248,320C1216,320,1184,320,1152,320C1120,320,1088,320,1056,320C1024,320,992,320,960,320C928,320,896,320,864,320C832,320,800,320,768,320C736,320,704,320,672,320C640,320,608,320,576,320C544,320,512,320,480,320C448,320,416,320,384,320C352,320,320,320,288,320C256,320,224,320,192,320C160,320,128,320,96,320C64,320,32,320,16,320L0,320Z"></path>
</svg>